<svg xmlns="http://www.w3.org/2000/svg" viewBox="104.5 19.5 482.0 577.5"><path fill="#ffffff" fill-rule="evenodd" d="M 346.0 35.5 L 348.5 41.0 L 349.5 58.0 L 352.5 72.0 L 356.5 81.0 L 365.0 87.5 L 380.0 91.5 L 401.0 93.5 L 403.5 95.0 L 403.5 97.0 L 401.0 98.5 L 373.0 101.5 L 362.0 105.5 L 356.5 110.0 L 341.5 145.0 L 314.5 185.0 L 305.5 203.0 L 302.5 214.0 L 302.5 230.0 L 304.5 239.0 L 312.5 255.0 L 333.5 278.0 L 325.0 277.5 L 321.0 274.5 L 305.5 255.0 L 297.5 237.0 L 296.5 211.0 L 301.5 195.0 L 307.5 183.0 L 329.5 146.0 L 334.5 131.0 L 335.5 116.0 L 333.5 110.0 L 324.0 103.5 L 313.0 100.5 L 291.0 98.5 L 288.5 97.0 L 288.5 95.0 L 325.0 88.5 L 334.5 82.0 L 340.5 65.0 L 343.5 38.0 L 345.5 36.0 Z M 201.0 155.5 L 202.5 160.0 L 192.5 181.0 L 189.5 192.0 L 189.5 202.0 L 193.5 210.0 L 214.0 227.5 L 270.0 261.5 L 305.0 278.5 L 333.0 287.5 L 357.0 287.5 L 391.0 276.5 L 452.0 243.5 L 490.0 217.5 L 499.5 207.0 L 501.5 195.0 L 499.5 185.0 L 488.5 159.0 L 489.0 156.5 L 493.5 159.0 L 508.5 180.0 L 522.0 190.5 L 537.0 190.5 L 567.0 177.5 L 570.5 179.0 L 546.0 198.5 L 535.5 213.0 L 536.5 228.0 L 548.5 257.0 L 548.0 259.5 L 542.5 256.0 L 529.5 237.0 L 519.0 227.5 L 513.0 225.5 L 497.0 227.5 L 452.0 249.5 L 410.0 275.5 L 386.0 293.5 L 372.5 307.0 L 361.5 323.0 L 353.5 348.0 L 349.5 380.0 L 348.5 454.0 L 352.5 497.0 L 356.5 507.0 L 365.0 513.5 L 383.0 517.5 L 401.0 518.5 L 403.5 521.0 L 402.0 522.5 L 368.0 528.5 L 361.0 531.5 L 355.5 537.0 L 350.5 552.0 L 346.5 581.0 L 343.5 580.0 L 341.5 557.0 L 338.5 544.0 L 334.5 536.0 L 330.0 531.5 L 323.0 528.5 L 293.0 523.5 L 287.5 521.0 L 290.0 518.5 L 312.0 516.5 L 329.0 511.5 L 334.5 506.0 L 339.5 491.0 L 342.5 459.0 L 341.5 380.0 L 336.5 343.0 L 330.5 325.0 L 325.5 316.0 L 305.0 293.5 L 281.0 275.5 L 233.0 246.5 L 193.0 227.5 L 173.0 227.5 L 163.5 235.0 L 147.5 257.0 L 145.0 259.5 L 142.5 259.0 L 153.5 231.0 L 155.5 223.0 L 154.5 211.0 L 145.0 198.5 L 122.0 181.5 L 120.5 178.0 L 127.0 178.5 L 155.0 190.5 L 169.0 190.5 L 182.5 180.0 L 200.5 156.0 Z M 401.0 309.5 L 413.0 309.5 L 427.0 312.5 L 438.0 317.5 L 448.0 324.5 L 464.5 344.0 L 478.5 368.0 L 487.5 380.0 L 501.0 393.5 L 510.0 398.5 L 519.0 399.5 L 528.0 395.5 L 552.0 370.5 L 554.0 370.5 L 554.5 373.0 L 538.5 403.0 L 537.5 418.0 L 542.5 428.0 L 565.5 452.0 L 562.0 453.5 L 532.0 436.5 L 519.0 435.5 L 504.0 444.5 L 483.0 464.5 L 482.5 461.0 L 484.5 457.0 L 499.5 432.0 L 500.5 418.0 L 498.5 413.0 L 481.5 390.0 L 461.5 352.0 L 453.5 340.0 L 439.0 325.5 L 419.0 316.5 L 393.0 316.5 L 376.0 321.5 L 373.5 320.0 L 380.0 313.5 L 400.5 310.0 Z M 326.0 338.5 L 329.5 346.0 L 329.5 352.0 L 326.5 361.0 L 315.5 380.0 L 299.0 392.5 L 289.0 396.5 L 271.0 399.5 L 221.0 400.5 L 203.0 405.5 L 192.5 413.0 L 189.5 419.0 L 189.5 428.0 L 201.5 458.0 L 202.0 463.5 L 196.5 459.0 L 181.5 439.0 L 169.0 429.5 L 154.0 429.5 L 126.0 441.5 L 122.0 442.5 L 120.5 441.0 L 123.0 437.5 L 148.0 418.5 L 153.5 412.0 L 156.5 405.0 L 155.5 392.0 L 143.5 361.0 L 146.0 360.5 L 148.5 363.0 L 154.5 373.0 L 170.0 390.5 L 179.0 394.5 L 212.0 390.5 L 275.0 392.5 L 292.0 388.5 L 302.0 383.5 L 311.5 375.0 L 319.5 362.0 L 325.5 339.0 Z"></path></svg>